<?xml version="1.0" encoding="UTF-8"?><svg xmlns="http://www.w3.org/2000/svg" xmlns:xlink="http://www.w3.org/1999/xlink" fill-opacity="1" color-rendering="auto" color-interpolation="auto" text-rendering="auto" stroke="black" stroke-linecap="square" width="1349" stroke-miterlimit="10" shape-rendering="auto" stroke-opacity="1" fill="black" stroke-dasharray="none" font-weight="normal" stroke-width="1" height="1052" font-family="'Dialog'" font-style="normal" stroke-linejoin="miter" font-size="12px" stroke-dashoffset="0" image-rendering="auto">
  <!--Generated by ySVG 2.5-->
  <defs id="genericDefs"/>
  <g>
    <defs id="defs1">
      <clipPath clipPathUnits="userSpaceOnUse" id="clipPath1">
        <path d="M0 0 L1349 0 L1349 1052 L0 1052 L0 0 Z"/>
      </clipPath>
      <clipPath clipPathUnits="userSpaceOnUse" id="clipPath2">
        <path d="M126 98 L1062.8055 98 L1062.8055 828.5555 L126 828.5555 L126 98 Z"/>
      </clipPath>
      <clipPath clipPathUnits="userSpaceOnUse" id="clipPath3">
        <path d="M123 95 L1059.8055 95 L1059.8055 825.5555 L123 825.5555 L123 95 Z"/>
      </clipPath>
    </defs>
    <g fill="white" text-rendering="geometricPrecision" shape-rendering="geometricPrecision" transform="scale(1.44,1.44) translate(-126,-98)" stroke="white">
      <rect x="126" width="937" height="731" y="98" clip-path="url(#clipPath2)" stroke="none"/>
    </g>
    <g fill="rgb(179,166,145)" text-rendering="geometricPrecision" shape-rendering="geometricPrecision" transform="matrix(1.44,0,0,1.44,-181.44,-141.12) translate(3,3)" stroke="rgb(179,166,145)">
      <rect x="481.6667" y="292.4127" clip-path="url(#clipPath3)" width="21" rx="4" ry="4" height="30" stroke="none"/>
    </g>
    <g text-rendering="geometricPrecision" shape-rendering="geometricPrecision" transform="matrix(1.44,0,0,1.44,-181.44,-141.12)">
      <rect x="481.6667" y="292.4127" clip-path="url(#clipPath2)" width="21" rx="4" ry="4" height="30" stroke="none"/>
      <rect stroke-linecap="butt" x="481.6667" y="292.4127" clip-path="url(#clipPath2)" fill="none" width="21" rx="4" ry="4" height="30" stroke-miterlimit="1.45"/>
    </g>
    <g stroke-linecap="butt" font-size="14px" transform="matrix(1.44,0,0,1.44,-181.44,-141.12)" fill="white" text-rendering="geometricPrecision" font-family="sans-serif" shape-rendering="geometricPrecision" stroke="white" font-weight="bold" stroke-miterlimit="1.45">
      <text x="487.8737" xml:space="preserve" y="312.7037" clip-path="url(#clipPath2)" stroke="none">P</text>
    </g>
    <g fill="rgb(179,166,145)" text-rendering="geometricPrecision" shape-rendering="geometricPrecision" transform="matrix(1.44,0,0,1.44,-181.44,-141.12) translate(3,3)" stroke="rgb(179,166,145)">
      <rect x="502.6667" y="292.0317" clip-path="url(#clipPath3)" width="21" rx="4" ry="4" height="30.381" stroke="none"/>
    </g>
    <g fill="yellow" text-rendering="geometricPrecision" shape-rendering="geometricPrecision" transform="matrix(1.44,0,0,1.44,-181.44,-141.12)" stroke="yellow">
      <rect x="502.6667" y="292.0317" clip-path="url(#clipPath2)" width="21" rx="4" ry="4" height="30.381" stroke="none"/>
    </g>
    <g text-rendering="geometricPrecision" stroke-miterlimit="1.45" shape-rendering="geometricPrecision" transform="matrix(1.44,0,0,1.44,-181.44,-141.12)" stroke-linecap="butt">
      <rect x="502.6667" y="292.0317" clip-path="url(#clipPath2)" fill="none" width="21" rx="4" ry="4" height="30.381"/>
    </g>
    <g stroke-linecap="butt" font-size="14px" transform="matrix(1.44,0,0,1.44,-181.44,-141.12)" fill="rgb(153,51,0)" text-rendering="geometricPrecision" font-family="sans-serif" shape-rendering="geometricPrecision" stroke="rgb(153,51,0)" font-weight="bold" stroke-miterlimit="1.45">
      <text x="508.9626" xml:space="preserve" y="312.5132" clip-path="url(#clipPath2)" stroke="none">E</text>
    </g>
    <g fill="rgb(179,166,145)" text-rendering="geometricPrecision" shape-rendering="geometricPrecision" transform="matrix(1.44,0,0,1.44,-181.44,-141.12) translate(3,3)" stroke="rgb(179,166,145)">
      <rect x="523.6667" y="292.0317" clip-path="url(#clipPath3)" width="21" rx="4" ry="4" height="30.381" stroke="none"/>
    </g>
    <g fill="rgb(204,255,204)" text-rendering="geometricPrecision" shape-rendering="geometricPrecision" transform="matrix(1.44,0,0,1.44,-181.44,-141.12)" stroke="rgb(204,255,204)">
      <rect x="523.6667" y="292.0317" clip-path="url(#clipPath2)" width="21" rx="4" ry="4" height="30.381" stroke="none"/>
    </g>
    <g text-rendering="geometricPrecision" stroke-miterlimit="1.45" shape-rendering="geometricPrecision" transform="matrix(1.44,0,0,1.44,-181.44,-141.12)" stroke-linecap="butt">
      <rect x="523.6667" y="292.0317" clip-path="url(#clipPath2)" fill="none" width="21" rx="4" ry="4" height="30.381"/>
    </g>
    <g stroke-linecap="butt" font-size="14px" transform="matrix(1.44,0,0,1.44,-181.44,-141.12)" fill="rgb(153,51,0)" text-rendering="geometricPrecision" font-family="sans-serif" shape-rendering="geometricPrecision" stroke="rgb(153,51,0)" font-weight="bold" stroke-miterlimit="1.45">
      <text x="528.9474" xml:space="preserve" y="312.5132" clip-path="url(#clipPath2)" stroke="none">G</text>
    </g>
    <g fill="rgb(179,166,145)" text-rendering="geometricPrecision" shape-rendering="geometricPrecision" transform="matrix(1.44,0,0,1.44,-181.44,-141.12) translate(3,3)" stroke="rgb(179,166,145)">
      <rect x="544.6667" y="292.0317" clip-path="url(#clipPath3)" width="21" rx="4" ry="4" height="30.381" stroke="none"/>
    </g>
    <g fill="rgb(51,102,255)" text-rendering="geometricPrecision" shape-rendering="geometricPrecision" transform="matrix(1.44,0,0,1.44,-181.44,-141.12)" stroke="rgb(51,102,255)">
      <rect x="544.6667" y="292.0317" clip-path="url(#clipPath2)" width="21" rx="4" ry="4" height="30.381" stroke="none"/>
    </g>
    <g text-rendering="geometricPrecision" stroke-miterlimit="1.45" shape-rendering="geometricPrecision" transform="matrix(1.44,0,0,1.44,-181.44,-141.12)" stroke-linecap="butt">
      <rect x="544.6667" y="292.0317" clip-path="url(#clipPath2)" fill="none" width="21" rx="4" ry="4" height="30.381"/>
    </g>
    <g stroke-linecap="butt" font-size="14px" transform="matrix(1.44,0,0,1.44,-181.44,-141.12)" fill="yellow" text-rendering="geometricPrecision" font-family="sans-serif" shape-rendering="geometricPrecision" stroke="yellow" font-weight="bold" stroke-miterlimit="1.45">
      <text x="551.1677" xml:space="preserve" y="312.5132" clip-path="url(#clipPath2)" stroke="none">S</text>
    </g>
  </g>
</svg>
